<svg width="344" height="397" viewBox="0 0 344 397" fill="none" xmlns="http://www.w3.org/2000/svg">
<path fill-rule="evenodd" clip-rule="evenodd" d="M179.08 4.54463L171.804 0.34375L164.528 4.54463V12.9464L171.804 17.1473L179.08 12.9464V4.54463ZM171.804 57.9883L183.931 64.9897V73.2836L219.397 93.7603L226.533 89.6406L238.66 96.6421V104.881L274.171 125.384L281.256 121.293L293.383 128.294V142.297L286.279 146.399V166.882V187.369L293.383 191.47V205.473L286.279 209.575V230.124V250.543L293.383 254.644V268.647L281.256 275.648L274.227 271.59L238.66 292.124V300.299L226.533 307.301L219.453 303.213L183.931 323.722V331.954L171.804 338.955L159.677 331.954V317.951L166.741 313.872V272.728L159.677 268.649V254.646L171.804 247.645L178.984 251.79L214.406 231.339V223.056L221.51 218.954V177.989L214.406 173.887V165.667L178.929 145.185L171.804 149.299L164.616 145.149L129.202 165.595V173.887L121.972 178.061V218.882L129.202 223.056V237.059L121.972 241.233V282.187L129.202 286.361V300.364L121.972 304.538V345.494L129.202 349.667V363.67L117.075 370.672L104.948 363.67V355.446L69.4866 334.966L62.3514 339.086L50.2245 332.084V318.082L57.2034 314.052V272.807L50.2245 268.778V254.775L57.2034 250.746V209.502L50.2245 205.473V191.47L57.2034 187.441V146.327L50.2245 142.297V128.294L62.3514 121.293L69.3743 125.348L104.948 104.809V96.6421L117.075 89.6406L124.148 93.7242L159.677 73.2114V64.9897L171.804 57.9883ZM111.972 304.419V345.612L109.944 346.783L74.4783 326.301V318.082L67.2034 313.881V272.978L74.4783 268.778V254.775L67.2034 250.575V209.673L74.4783 205.473V191.47L67.2034 187.27V146.497L74.4783 142.297V133.948L109.894 113.501L117.075 117.646L129.202 110.645V102.353L164.67 81.8755L171.804 85.9941L178.875 81.9116L214.406 102.425V110.645L226.533 117.646L233.651 113.537L269.129 134.02V142.297L276.279 146.425V166.882V187.342L269.129 191.47V205.473L276.279 209.601V230.124V250.516L269.129 254.644V262.986L233.707 283.437L226.533 279.295L214.406 286.296V294.58L178.929 315.063L176.741 313.8V272.8L183.931 268.649V260.481L219.452 239.972L226.533 244.061L238.66 237.059V223.056L231.51 218.928V178.015L238.66 173.887V159.884L226.533 152.883L219.398 157.002L183.931 136.525V128.294L171.804 121.293L159.677 128.294V136.453L124.147 156.966L117.075 152.883L104.948 159.884V173.887L111.972 177.943V219.001L104.948 223.056V237.059L111.972 241.115V282.305L104.948 286.361V300.364L111.972 304.419ZM14.9058 171.084L7.62965 175.285L0.353516 171.084V162.683L7.62965 158.482L14.9058 162.683V171.084ZM7.62965 112.047L14.9058 107.846V99.4442L7.62965 95.2434L0.353516 99.4442V107.846L7.62965 112.047ZM14.9058 234.26L7.62965 238.461L0.353516 234.26V225.858L7.62965 221.657L14.9058 225.858V234.26ZM335.853 175.285L328.577 171.084V162.683L335.853 158.482L343.129 162.683V171.084L335.853 175.285ZM328.577 107.846L335.853 112.047L343.129 107.846V99.4442L335.853 95.2434L328.577 99.4442V107.846ZM171.804 396.66L179.08 392.459V384.058L171.804 379.857L164.528 384.058V392.459L171.804 396.66ZM14.9058 297.561L7.62965 301.762L0.353516 297.561V289.159L7.62965 284.958L14.9058 289.159V297.561ZM335.853 238.457L343.129 234.256V225.854L335.853 221.654L328.577 225.854V234.256L335.853 238.457ZM179.08 202.674L171.804 206.875L164.528 202.674V194.272L171.804 190.071L179.08 194.272V202.674ZM335.853 301.762L343.129 297.561V289.159L335.853 284.958L328.577 289.159V297.561L335.853 301.762ZM273.855 329.284L281.131 333.484L288.407 329.284V320.882L281.131 316.681L273.855 320.882V329.284ZM226.408 365.07L219.132 360.869V352.468L226.408 348.267L233.684 352.468V360.869L226.408 365.07ZM62.3515 63.5195L69.6276 67.7204V76.1222L62.3515 80.323L55.0753 76.1222V67.7204L62.3515 63.5195ZM124.351 36.1345L117.075 31.9336L109.799 36.1345V44.5362L117.075 48.7371L124.351 44.5362V36.1345ZM281.131 63.5195L273.855 67.7204V76.1222L281.131 80.323L288.407 76.1222V67.7204L281.131 63.5195ZM219.132 36.1345L226.408 31.9336L233.684 36.1345V44.5362L226.408 48.7371L219.132 44.5362V36.1345Z" fill="white"/>
</svg>
